<svg width="28" height="28" viewBox="0 0 28 28" fill="none" xmlns="http://www.w3.org/2000/svg">
<g clipPath="url(#clip0_864_32431)">
<path d="M22.9755 22.9766C23.0981 22.9933 23.5736 22.9429 23.6934 22.9766C23.6281 22.856 23.8119 23.0099 23.6934 22.9766C23.6683 23.0661 23.7516 23.6263 23.6934 23.6946C23.6415 23.7541 23.7545 23.6466 23.6934 23.6946C23.6436 23.7337 23.0327 23.7055 22.9755 23.6946C22.8427 23.5867 23.0235 23.1559 22.9755 22.9766Z" fill="#083B5A"/>
<path d="M13.6413 22.9766C13.6852 23.0232 14.3037 23.5504 14.3593 23.6945C14.6179 24.3651 14.539 25.351 15.0772 25.8484C15.5197 26.2572 16.6067 26.521 17.2311 26.5663C17.4348 26.5811 17.7407 26.5698 17.949 26.5663C16.5775 26.9796 15.0721 27.4118 13.6413 27.2843C13.0741 27.227 12.769 27.367 12.2054 27.2843C11.8318 27.2294 11.1356 26.6592 10.7695 26.5663C11.22 26.4157 11.8708 26.195 12.2054 25.8484C12.029 25.9835 12.3579 25.6903 12.2054 25.8484C12.1978 25.8539 12.2128 25.8426 12.2054 25.8484C12.3748 25.9746 12.7415 25.7389 12.9234 25.8484C13.0892 25.9481 13.4437 26.6089 13.6413 26.5663C13.8783 26.374 13.7487 25.3293 13.6413 25.1304C13.4605 24.7957 12.8583 24.7915 12.9234 24.4125C13.0036 23.9454 13.2373 23.258 13.6413 22.9766Z" fill="#083B5A"/>
<path d="M26.5644 10.7695C26.6297 11.2679 27.2214 11.7047 27.2823 12.2054C27.3639 12.8773 27.2729 13.6828 27.2823 14.3593C27.2897 14.9011 27.3544 15.2596 27.2823 15.7952C27.1936 16.4537 26.7278 17.306 26.5644 17.949C26.5318 17.6124 26.6288 17.5627 26.5644 17.2311C26.3705 16.2338 25.8999 14.8985 25.1285 14.3593C24.7139 14.095 24.1595 14.4993 23.6926 14.3593C23.4577 14.2889 23.2078 13.7203 22.9746 13.6413C23.211 13.3424 23.3554 13.0841 23.6926 12.9234C24.2782 12.6444 24.6064 13.2641 25.1285 13.6413C25.3033 13.7677 25.6475 13.5631 25.8464 13.6413C25.9297 13.6741 26.4823 13.6803 26.5644 13.6413C26.5661 13.671 26.5747 13.614 26.5644 13.6413C26.539 13.2189 26.1251 13.1919 25.8464 12.9234C26.1189 12.6053 26.3436 11.8579 26.5644 11.4875C26.7333 11.204 26.3667 11.0343 26.5644 10.7695Z" fill="#083B5A"/>
<path d="M17.2315 20.103C17.9943 20.0229 19.4393 20.4795 20.1033 20.8209C21.1821 21.3754 21.9223 21.8848 22.2572 22.9748C22.338 23.2377 22.4047 24.1963 22.2572 24.4107C22.0609 24.6961 20.497 25.7414 20.1033 25.8466C20.3582 25.2898 20.2419 25.043 20.1033 24.4107C19.8972 23.4698 18.8198 22.0745 17.9495 21.5389C17.6248 21.3391 17.6224 21.4641 17.2315 21.5389C17.1942 21.5521 17.2675 21.5228 17.2315 21.5389C17.1956 21.555 17.2659 21.52 17.2315 21.5389C17.1973 21.5578 16.546 21.5172 16.5136 21.5389C16.4811 21.5605 16.5439 21.5147 16.5136 21.5389C16.4833 21.5631 16.5416 21.5124 16.5136 21.5389C16.4856 21.5654 16.539 21.5102 16.5136 21.5389C16.4881 21.5676 16.5363 21.5083 16.5136 21.5389C16.4909 21.5695 16.5334 22.2245 16.5136 22.2568C16.2883 22.6178 16.4 22.585 16.5136 22.9748C16.647 23.4328 16.7776 24.1667 17.2315 24.4107C17.2933 24.1374 17.0817 23.192 17.2315 22.9748C17.1565 22.9881 17.2723 22.9156 17.2315 22.9748C17.4065 22.9439 17.8136 22.8834 17.9495 22.9748C18.2829 23.1991 18.6052 24.0193 18.6674 24.4107C18.7018 24.6267 18.8095 24.9529 18.6674 25.1286C18.4269 25.4259 17.6179 25.0841 17.2315 25.1286C16.7732 25.1815 16.1562 25.3958 15.7956 25.1286C15.2163 24.6994 15.1616 23.644 15.0777 22.9748C14.984 22.2266 15.2817 21.4268 15.7956 20.8209C16.283 20.2464 16.4753 20.1847 17.2315 20.103Z" fill="#083B5A"/>
<path d="M22.2559 15.0772C22.231 15.0782 22.2806 15.0738 22.2559 15.0772C23.0051 15.0485 23.8605 15.224 24.4097 15.7951C24.727 16.1249 25.1271 16.756 25.1277 17.231C25.1283 17.6447 24.6902 18.3766 24.4097 18.6669C24.2662 18.8156 24.6107 18.6725 24.4097 18.6669C24.0812 18.6578 23.9076 18.1952 23.6918 17.949C23.546 17.7825 22.9577 17.4727 22.9738 17.231C22.995 16.9138 23.4869 17.426 23.6918 17.231C23.7049 17.191 24.4235 17.2726 24.4097 17.231C24.3505 17.0512 23.1569 16.5994 22.9738 16.5131C22.5721 16.3234 22.6751 16.3326 22.2559 16.5131C22.2194 16.5284 22.2908 16.4939 22.2559 16.5131C22.2209 16.5323 21.5709 16.4903 21.5379 16.5131C21.505 16.5359 21.5686 16.4868 21.5379 16.5131C21.5072 16.5393 21.566 16.4837 21.5379 16.5131C21.5098 16.5424 21.5632 16.4809 21.5379 16.5131C21.5127 16.5453 21.5601 16.4784 21.5379 16.5131C21.5158 16.5478 21.5568 17.1941 21.5379 17.231C21.519 17.2679 21.5533 17.1923 21.5379 17.231C21.4365 17.4903 21.4399 17.6926 21.5379 17.949C21.8948 18.882 22.8501 19.7284 23.6918 20.1028C23.5876 20.0673 23.791 20.1522 23.6918 20.1028C24.5243 20.3872 25.0961 19.8026 25.8456 19.3849C25.58 19.9111 25.3998 21.015 25.1277 21.5387C24.9988 21.7867 24.5751 22.0351 24.4097 22.2567C24.3095 22.3908 24.5718 22.2395 24.4097 22.2567C23.6098 22.3416 22.1456 22.0806 21.5379 21.5387C20.6969 20.7887 20.202 19.1178 20.102 17.949C20.0374 17.194 20.3578 16.3855 20.82 15.7951C21.2719 15.2179 21.5723 15.1395 22.2559 15.0772Z" fill="#083B5A"/>
<path d="M12.9225 0.718431C13.2298 0.693455 13.3317 0.718432 13.6404 0.718431C14.3212 0.718431 15.1198 0.61368 15.7943 0.718431C16.3021 0.797306 16.7373 1.29579 17.2302 1.43638C17.8391 1.61006 18.7976 1.19661 19.384 1.43638C20.5049 1.89468 22.044 2.82585 22.9738 3.59023C23.8334 4.29697 25.7534 6.81134 25.8456 7.89792C25.8687 8.16983 25.9539 8.36944 25.8456 8.61587C25.115 10.2783 22.2954 11.2591 20.8199 12.2056C20.1383 12.6429 19.906 13.0196 19.384 13.6415C18.8315 14.2997 17.8908 14.9364 17.9481 15.7954C17.9709 16.1375 18.6338 16.8879 18.6661 17.2313C18.6624 17.23 18.6697 17.2326 18.6661 17.2313C18.0827 17.0172 16.3082 15.8156 15.7943 15.7954C15.7306 15.7928 15.8386 15.7559 15.7943 15.7954C15.7358 16.1822 16.332 17.5249 16.5122 17.9492C16.5564 18.0533 17.2055 18.5571 17.2302 18.6671C16.4797 18.6601 15.8515 18.456 15.0763 18.6671C13.5271 19.0893 12.237 20.2309 11.4866 21.5389C10.9335 22.4857 10.7704 23.5768 10.0507 24.4107C9.70465 24.8118 8.40339 25.8214 7.89683 25.8466C7.71337 25.8559 7.33516 25.932 7.17889 25.8466C6.35383 25.3955 5.73217 24.3098 5.02504 23.6928C2.36926 21.3757 0.940062 18.5608 0.717348 15.0774C0.501345 11.6989 2.04969 7.56781 4.30709 5.02612C5.94572 3.18113 7.67979 2.20862 10.0507 1.43638C10.395 1.32423 10.4178 1.52672 10.7686 1.43638C11.466 1.25679 12.201 0.763641 12.9225 0.718431Z" fill="url(#paint0_linear_864_32431)"/>
</g>
<defs>
<linearGradient id="paint0_linear_864_32431" x1="17.7053" y1="17.633" x2="4.7713" y2="4.56118" gradientUnits="userSpaceOnUse">
<stop stop-color="#EC800F"/>
<stop offset="1" stop-color="#FFC001"/>
</linearGradient>
<clipPath id="clip0_864_32431">
<rect width="28" height="28" fill="white"/>
</clipPath>
</defs>
</svg>
