<svg width="28" height="28" viewBox="0 0 28 28" fill="none" xmlns="http://www.w3.org/2000/svg">
<g clipPath="url(#clip0_864_32443)">
<path d="M6.99733 15.0401L3 15.1156V14.6334L6.99792 14.7315C6.99596 14.7917 6.99596 14.8511 6.99596 14.9112C6.99596 14.9546 6.99668 14.9974 6.99733 15.0401ZM13.9357 7.7717L13.8382 3.91406H14.3265L14.2517 7.7717C14.1956 7.77039 14.1388 7.76974 14.0827 7.76974C14.0339 7.76974 13.9845 7.77039 13.9357 7.7717ZM21.1674 14.7315L25.1654 14.6334V15.1156L21.1681 15.0401C21.1687 14.9974 21.1694 14.9546 21.1694 14.9112C21.1694 14.8511 21.1694 14.7917 21.1674 14.7315ZM7.04667 15.7687L3.08544 16.2543L3.03466 15.774L7.0166 15.4614C7.02393 15.5642 7.03462 15.6664 7.04667 15.7687ZM13.1895 7.82556L12.6878 3.99865L13.1728 3.94787L13.5041 7.7928C13.3986 7.80217 13.2937 7.81219 13.1895 7.82556ZM21.1125 14.0038L25.0798 13.4955L25.1306 13.9751L21.1446 14.3111C21.136 14.2082 21.126 14.106 21.1125 14.0038ZM7.16933 16.4895L3.28968 17.378L3.18877 16.9057L7.10859 16.1869C7.12661 16.2884 7.14731 16.3893 7.16933 16.4895ZM12.4545 7.95923L11.5514 4.20033L12.029 4.1008L12.7631 7.8937C12.6596 7.91303 12.5561 7.93518 12.4545 7.95923ZM20.9848 13.285L24.8752 12.3713L24.9761 12.8435L21.0476 13.5877C21.029 13.4863 21.0081 13.3854 20.9848 13.285ZM7.36577 17.1954L3.61165 18.4745L3.462 18.015L7.27423 16.8994C7.30232 16.9988 7.33284 17.0975 7.36577 17.1953M11.7378 8.17008L10.4432 4.51884L10.9075 4.37056L12.0377 8.07193C11.9368 8.10266 11.8366 8.13535 11.7378 8.17008ZM20.7844 12.5829L24.5532 11.2749L24.7035 11.7345L20.8779 12.8775C20.8484 12.7787 20.8173 12.6805 20.7844 12.5829ZM7.63467 17.8789L4.04692 19.5309L3.84917 19.0901L7.51247 17.5937C7.55127 17.6896 7.59201 17.7847 7.63467 17.8789ZM11.0494 8.4549L9.37416 4.94932L9.82037 4.75426L11.3367 8.32537C11.2402 8.36678 11.1444 8.40997 11.0494 8.4549ZM20.5122 11.9038L24.1188 10.2178L24.3158 10.6593L20.6351 12.187C20.5961 12.0918 20.5551 11.9974 20.5123 11.9038M7.97323 18.5329L4.59049 20.5382L4.34806 20.1194L7.82161 18.2604C7.87044 18.3522 7.92099 18.4431 7.97323 18.533M10.3961 8.8103L8.35601 5.487L8.77948 5.24718L10.6672 8.652C10.5757 8.70343 10.4856 8.75618 10.3961 8.8103ZM20.1714 11.2545L23.5742 9.2111L23.8173 9.62992L20.3238 11.525C20.2748 11.4338 20.224 11.3436 20.1714 11.2545ZM18.1959 20.764L18.1792 20.7399C18.2649 20.6787 18.3491 20.6155 18.4317 20.5502L18.594 20.764H18.1959ZM8.37907 19.1501L6.2068 20.764H5.4379L8.19941 18.8943C8.25693 18.9812 8.31684 19.0665 8.37907 19.1501M9.78584 9.23239L7.3999 6.12761L7.79599 5.84501L10.0384 9.04605C9.95292 9.10685 9.86873 9.16831 9.78597 9.23239M19.7651 10.6426L22.9274 8.26581L23.2132 8.6573L19.9448 10.8964C19.8867 10.8109 19.8266 10.726 19.7651 10.6426M19.1832 20.764L18.763 20.2737C18.8416 20.2043 18.9185 20.1331 18.9935 20.0599L19.6541 20.764H19.1832ZM8.84736 19.7246L7.71579 20.764H7.12392L8.64162 19.4881C8.70822 19.5686 8.77682 19.6475 8.84736 19.7246ZM9.22412 9.71274L6.51672 6.86172L6.88077 6.5404L9.45521 9.50228C9.3763 9.57032 9.29924 9.64054 9.22412 9.71274ZM19.2968 10.0748L22.1852 7.39206L22.5098 7.75211L19.5018 10.3092C19.4353 10.2295 19.3669 10.1513 19.2968 10.0748ZM20.3646 20.7635L19.2931 19.7522C19.3632 19.6747 19.432 19.5965 19.4995 19.5163L20.943 20.7635H20.3645H20.3646ZM9.37475 20.2492L8.91983 20.7635H8.44086L9.14496 20.034C9.21977 20.1076 9.29639 20.1794 9.37475 20.2492ZM8.71533 10.2473L5.71545 7.68285L6.04346 7.32615L8.92383 10.0155C8.85228 10.0909 8.7828 10.1681 8.71546 10.2473M18.7707 9.55594L21.3545 6.59937L21.7152 6.92404L18.9998 9.76902C18.9251 9.69628 18.8487 9.62523 18.7707 9.55594ZM21.8358 20.7635L19.765 19.1804C19.8264 19.0969 19.8872 19.0113 19.9453 18.9252L22.5826 20.7635H21.8358ZM9.95548 20.7181L9.92272 20.7635H9.51864L9.70367 20.527C9.78584 20.5925 9.86997 20.656 9.95548 20.7181ZM8.26611 10.8304L5.00433 8.58267L5.2929 8.19321L8.44912 10.5786C8.38623 10.6612 8.32522 10.7451 8.26611 10.8304ZM18.1932 9.09303L20.445 5.89664L20.8384 6.18186L18.4437 9.28141C18.3616 9.2167 18.2781 9.15389 18.1932 9.09303ZM23.5266 20.6157L20.1733 18.5643C20.2266 18.475 20.2776 18.3844 20.3262 18.2925L23.7731 20.1989L23.5266 20.6158V20.6157ZM7.88018 11.4543L4.39189 9.55051L4.63839 9.13365L8.0358 11.1858C7.98175 11.274 7.92986 11.3635 7.88018 11.4543ZM17.5681 8.69216L19.4665 5.29069L19.8873 5.53457L17.8379 8.85381C17.7491 8.79811 17.6591 8.74422 17.5681 8.69216ZM24.0789 19.6134L20.5158 17.9114C20.5588 17.8174 20.5998 17.7225 20.6387 17.6268L24.2807 19.1739L24.0789 19.6134ZM7.56083 12.1132L3.88482 10.5761L4.0859 10.1359L7.68702 11.8306C7.64279 11.9238 7.60072 12.0181 7.56083 12.1132ZM16.9034 8.35773L18.429 4.78872L18.8739 4.98844L17.1892 8.49075C17.095 8.44413 16.9997 8.39974 16.9034 8.35773ZM24.5232 18.5597L20.7877 17.2291C20.8211 17.1315 20.8519 17.0327 20.8806 16.9338L24.6768 18.1015L24.5232 18.5597ZM7.31033 12.8003L3.48808 11.6474L3.64238 11.1897L7.40718 12.507C7.3731 12.6039 7.34034 12.7021 7.31033 12.8003ZM16.2052 8.09564L17.3455 4.3969L17.8084 4.54924L16.5039 8.19779C16.4053 8.16093 16.3057 8.12691 16.2052 8.09564ZM24.854 17.4663L20.9884 16.5245C21.0111 16.4243 21.0318 16.3234 21.0505 16.2212L24.959 16.9948L24.8541 17.4663L24.854 17.4663ZM7.13211 13.5085L3.20633 12.755L3.31123 12.2833L7.19895 13.2065C7.1749 13.3067 7.15288 13.4076 7.13211 13.5085ZM15.482 7.9093L16.2262 4.11777L16.7025 4.22195L15.7907 7.9781C15.6884 7.95339 15.5856 7.93 15.482 7.9093ZM25.0682 16.3445L21.1144 15.8041C21.1277 15.7019 21.1377 15.6003 21.1458 15.4968L25.123 15.8649L25.0682 16.3445ZM7.02773 14.231L3.04252 13.885L3.0973 13.4054L7.06312 13.9237C7.04982 14.0259 7.0371 14.1281 7.02773 14.231ZM14.7424 7.80092L15.0831 3.95593L15.5687 4.01005L15.0563 7.83696C14.952 7.82224 14.8474 7.81022 14.7424 7.80092" fill="#846D41"/>
<path d="M19.1111 9.81147C19.6628 9.89829 20.1337 10.1775 20.5546 10.5536L21.0068 10.9571L20.5546 11.3606C20.1337 11.7367 19.6628 12.0165 19.1111 12.1027V13.0065C19.1111 13.3325 19.3315 13.8522 19.4404 14.1675C19.6776 14.8541 19.884 15.6758 19.1792 16.1741L12.4873 20.9141L12.4605 20.53C12.3657 19.1773 12.7224 18.8219 13.0778 17.6256C13.1319 17.4452 12.9835 17.0604 12.9214 16.8868C12.7478 16.4059 12.5808 15.9503 12.5808 15.4305V13.9282L9.61089 16.0344L9.30962 15.5347C7.66763 12.814 7.66763 9.09996 9.30962 6.37861L9.61089 5.88025L12.5808 7.98575V6.48351C12.5808 5.96451 12.7478 5.50893 12.9215 5.02728C12.9835 4.8543 13.1318 4.46883 13.0778 4.28851C12.7224 3.09141 12.3657 2.73674 12.4605 1.38409L12.4873 1L19.1792 5.74003C19.3736 5.87763 19.5179 6.0567 19.5967 6.28243C19.7597 6.7494 19.5947 7.29848 19.4404 7.74672C19.3315 8.06202 19.1111 8.58168 19.1111 8.90765V9.81147Z" fill="#846D41"/>
<path d="M18.8953 10.0035C19.4738 10.043 19.9627 10.3134 20.411 10.7136L20.6822 10.9561L20.4109 11.1979C19.9627 11.5987 19.4738 11.8692 18.8953 11.908V13.0055C18.8953 13.8398 20.0322 15.3207 19.0549 15.9967L12.6763 20.5137C12.5808 19.1457 12.9194 18.9219 13.2862 17.6861C13.3603 17.437 13.21 17.0469 13.1252 16.8123C12.9615 16.3588 12.7978 15.9199 12.7978 15.4296V13.5085L9.67635 15.7215L9.49531 15.4223C7.89479 12.7703 7.89479 9.14182 9.49531 6.48986L9.67635 6.18997L12.7978 8.40371V6.48259C12.7978 5.99157 12.9615 5.55335 13.1252 5.0998C13.21 4.8653 13.3603 4.47452 13.2862 4.22541C12.9195 2.99031 12.5808 2.76648 12.6763 1.39844L19.0549 5.91543C20.0322 6.59142 18.8953 8.07236 18.8953 8.90666V10.0035Z" fill="white"/>
<path d="M13.1216 6.48401C13.1216 5.5836 13.7863 4.77328 13.5965 4.1347C13.3754 3.38918 13.0554 2.88485 12.9472 2.08594L18.8696 6.18411C19.5824 6.67704 18.5697 8.05183 18.5697 8.90749V10.3323C19.2263 10.2736 19.7387 10.5501 20.1943 10.9576C19.7387 11.3644 19.2263 11.641 18.5697 11.5821V13.007C18.5697 13.8627 19.5824 15.2374 18.8696 15.7311L12.9472 19.8292C13.0554 19.0296 13.3754 18.5259 13.5966 17.7798C13.7863 17.1412 13.1215 16.3309 13.1215 15.4311V12.8814L9.77294 15.2561C8.23454 12.707 8.23454 9.20811 9.77294 6.65836L13.1216 9.03309V6.48401Z" fill="#123258"/>
<path d="M17.5415 5.85358C16.2663 5.1576 15.0519 4.41745 14.0158 3.4375C14.2536 4.55106 14.8107 5.42211 15.7172 6.14954C15.8982 6.29448 15.8181 6.57105 15.4707 6.51961C14.7446 6.41072 14.6491 5.79618 13.8682 5.65655V8.91105C14.6491 8.77077 14.7446 8.15689 15.4707 8.04799C15.818 7.9959 15.8982 8.27241 15.7172 8.41741C14.8341 9.1261 14.2823 9.97114 14.0352 11.0439L14.0158 11.0259L14.0278 11.0773L14.0158 11.1287L14.0352 11.1114C14.2823 12.1842 14.8341 13.0292 15.7171 13.738C15.8982 13.8829 15.818 14.1601 15.4707 14.1073C14.7446 13.9991 14.6491 13.3846 13.8682 13.245V16.4994C14.6491 16.3599 14.7446 15.7446 15.4707 15.6357C15.818 15.5843 15.8982 15.8608 15.7172 16.0058C14.8107 16.7332 14.2536 17.6043 14.0158 18.7178C15.0519 17.7385 16.2663 16.9977 17.5415 16.3024C17.8461 16.1353 17.8514 15.8682 17.4988 15.5883C17.4066 15.5155 17.3798 15.3745 17.5235 15.3418C17.9376 15.2462 18.1413 15.0886 18.3057 14.8722C18.1413 14.6557 17.9376 14.4981 17.5235 14.4026C17.3798 14.3698 17.4066 14.2289 17.4988 14.1554C17.8514 13.8762 17.846 13.6083 17.5415 13.442C16.2883 12.7586 15.0953 12.0319 14.0706 11.0773C15.0946 10.1241 16.2883 9.39664 17.5415 8.71324C17.8461 8.54695 17.8514 8.27909 17.4988 7.9999C17.4066 7.92638 17.3798 7.78544 17.5235 7.75275C17.9376 7.65787 18.1413 7.49957 18.3057 7.2838C18.1413 7.06738 17.9376 6.90967 17.5235 6.8142C17.3798 6.78079 17.4066 6.64057 17.4988 6.56705C17.8514 6.28714 17.846 6.01987 17.5415 5.85358ZM17.5769 10.581C17.7907 10.3191 17.9536 9.99316 17.9496 9.62977L15.4433 11.0613L17.9496 12.4935C17.9536 12.1294 17.7907 11.8041 17.5769 11.5416C17.8668 11.4166 18.1326 11.253 18.3791 11.0613C18.1326 10.8689 17.8667 10.7059 17.5769 10.581ZM13.1033 9.64779C11.8275 8.95174 10.6131 8.2116 9.57768 7.23237C9.81487 8.3452 10.3726 9.21632 11.2784 9.94369C11.4594 10.0893 11.3773 10.3806 11.0319 10.3138C10.3058 10.1735 9.88832 9.52493 9.10742 9.45076V12.7046C9.88832 12.6384 10.3058 11.9771 11.0319 11.8422C11.3772 11.778 11.4594 12.0666 11.2784 12.2116C10.3726 12.939 9.8148 13.8101 9.57768 14.9236C10.6131 13.9444 11.8275 13.2036 13.1033 12.5075C13.4073 12.3412 13.4126 12.074 13.0599 11.794C12.9677 11.7213 12.941 11.5803 13.0846 11.5476C13.4987 11.4514 13.7032 11.2938 13.8675 11.0773C13.7032 10.8615 13.4988 10.7039 13.0846 10.6084C12.941 10.5757 12.9677 10.4347 13.0599 10.3619C13.4126 10.0814 13.4073 9.81415 13.1033 9.64779Z" fill="white"/>
<path d="M18.402 24.9582C20.5951 24.2922 22.094 22.9322 23.2069 21.2422H20.5256C20.1909 22.0684 19.4909 22.3257 18.4862 22.1085C18.7561 22.8267 18.7093 24.0564 17.6479 24.3436C16.2184 24.7298 15.4522 23.4673 16.1108 22.8073C16.549 23.6503 17.3025 23.2001 17.3826 22.6402C17.4809 21.9582 16.1161 21.5341 15.5029 22.2495C14.8924 22.9609 14.7347 24.4211 16.4461 25.2067C17.5009 25.691 18.241 26.0357 18.6538 26.9976C18.8489 26.5313 18.9097 25.5921 18.402 24.9582M12.7882 25.9635H15.358C14.696 25.5881 14.4234 25.2127 14.0728 24.5948C13.7227 25.2127 13.4502 25.5881 12.7882 25.9635ZM13.1509 21.2422H14.9953C14.5197 21.5034 14.3246 21.7645 14.0728 22.1921C13.8216 21.7645 13.6259 21.5034 13.1509 21.2422ZM9.82697 24.9582C7.63328 24.2922 6.13438 22.9322 5.02148 21.2422H7.70345C8.03749 22.0684 8.73753 22.3257 9.74284 22.1085C9.47295 22.8267 9.51908 24.0564 10.5812 24.3436C12.0107 24.7298 12.7769 23.4673 12.1176 22.8073C11.68 23.6503 10.9258 23.2001 10.8457 22.6402C10.7475 21.9582 12.1123 21.5341 12.7254 22.2495C13.336 22.9609 13.4936 24.4211 11.7829 25.2067C10.7282 25.691 9.9873 26.0357 9.57517 26.9976C9.37945 26.5313 9.31858 25.5921 9.82697 24.9582Z" fill="#123258"/>
</g>
<defs>
<clipPath id="clip0_864_32443">
<rect width="28" height="28" fill="white"/>
</clipPath>
</defs>
</svg>
