<svg xmlns="http://www.w3.org/2000/svg" viewBox="0 0 103 40">
    <path d="m20.751 29.175 2.194 2.227 3.31 5.417.542 1.341-6.092-4.38s-.59-2.404-.594-4.967c-.003-2.564.64.362.64.362Z" fill="#376466"/>
    <path d="M10.553 18.729s-3.628 5.292-3.661 6.115c.59-.286 4.663-3.346 7.355-1.712l-3.694-4.403Z" fill="#376466"/>
    <path d="M36.32 1.667s-15.323 8.585-15.532 25.377c0 0 4.41 5.49 6.009 11.117-.014-.046-.044-.04-.087-.13-.068-.14-.169-.406-.293-.659-.983-2.006-3.933-7.136-9.175-11.65-6.325-5.449-4.44-3.908-4.44-3.908S10.565 20.273 10 16.723c0 0-1.465-5.957-2.667-7.506-.054-.07-3.761-4.821-3.814-4.87.552.439 4.535 6.204 7.538 5.586.39-.021 3.461-.238 4.153 4.372.763-1.264 9.12-8.618 21.11-12.638Z" fill="#63b4b8"/>
    <path d="m20.751 29.175 2.711 3.073.459.53.329.47.406.629.26.47.846 1.665 1.035 2.148-4.85-3.487-.704-2.626-.492-2.872Z" fill="#a8d5d7"/>
    <path d="m26.785 38.135-.34-.704c.06.128.116.257.163.369.039.092.073.173.101.231.024.049.044.069.059.085a.18.18 0 0 1 .017.02Zm-.369-.765-.654-1.358-.847-1.665-.26-.47-.406-.628-.329-.471-.458-.53-1.999-2.265c2.659 3.13 4.274 6.001 4.953 7.387Z" fill="#63b4b8"/>
    <path d="M33.723 22.397h3.904v1.707H31v-1.29l3.756-4.931h-3.645v-1.708h6.398v1.248l-3.786 4.974ZM41.825 22.63c.315 0 .606-.069.871-.208.266-.14.463-.326.59-.56v-1.364h-.796c-1.068 0-1.636.367-1.705 1.1l-.007.124c0 .264.093.481.28.652.187.171.443.257.767.257Zm1.764 1.474a2.335 2.335 0 0 1-.214-.711c-.516.572-1.188.857-2.014.857-.782 0-1.43-.224-1.945-.674a2.16 2.16 0 0 1-.771-1.7c0-.84.314-1.485.941-1.935.627-.45 1.534-.676 2.72-.681h.98v-.455c0-.366-.094-.659-.283-.879-.19-.22-.489-.33-.897-.33-.36 0-.64.086-.845.257-.204.17-.306.406-.306.703h-2.133c0-.459.143-.884.428-1.274.285-.391.689-.698 1.21-.92.522-.223 1.107-.334 1.757-.334.983 0 1.764.246 2.343.737.578.49.867 1.18.867 2.07v3.437c.005.752.11 1.321.317 1.707v.125H43.59ZM49.965 20.923l-.768.763v2.418h-2.133V12.848h2.133v6.236l.413-.527 2.044-2.382h2.561L51.33 19.48l3.136 4.624h-2.45l-2.051-3.18ZM59.92 23.298c-.527.635-1.255.952-2.184.952-.856 0-1.51-.244-1.96-.733-.45-.488-.68-1.204-.69-2.147v-5.195h2.133v5.128c0 .827.379 1.24 1.136 1.24.724 0 1.22-.25 1.491-.748v-5.62h2.14v7.929h-2.007l-.06-.806ZM68.65 20.059c0-.738-.133-1.307-.396-1.708-.263-.4-.645-.6-1.147-.6-.67 0-1.13.253-1.38.762v3.246c.26.523.726.784 1.395.784 1.018 0 1.527-.828 1.527-2.484Zm2.131.154c0 1.221-.279 2.2-.837 2.935-.558.735-1.312 1.102-2.261 1.102-.807 0-1.46-.278-1.956-.835v3.737h-2.133V16.175h1.978l.074.777c.516-.616 1.19-.924 2.022-.924.984 0 1.749.362 2.294 1.085.547.723.82 1.72.82 2.99v.11ZM75.003 20.923l-.767.763v2.418h-2.133V12.848h2.133v6.236l.413-.527 2.044-2.382h2.56l-2.885 3.305 3.137 4.624h-2.45l-2.052-3.18ZM82.427 24.104h-2.14v-7.93h2.14v7.93Zm-2.266-9.981c0-.317.107-.579.321-.784.214-.205.506-.308.875-.308.364 0 .654.103.87.308.217.205.325.466.325.784 0 .322-.11.586-.328.791-.22.206-.508.308-.867.308-.36 0-.649-.102-.868-.308a1.036 1.036 0 0 1-.328-.791ZM84.293 23.063c0-.337.115-.61.343-.82.23-.21.516-.316.86-.316.35 0 .639.105.867.315.23.21.344.484.344.821 0 .332-.114.602-.34.81-.227.208-.517.311-.87.311-.35 0-.638-.103-.864-.311a1.048 1.048 0 0 1-.34-.81ZM91.473 20.923l-.767.763v2.418h-2.133V12.848h2.133v6.236l.413-.527 2.044-2.382h2.56L92.84 19.48l3.136 4.624h-2.45l-2.052-3.18ZM99.096 22.397H103v1.707h-6.627v-1.29l3.756-4.931h-3.645v-1.708h6.398v1.248l-3.786 4.974Z" fill="#343a40"/>
</svg>