<svg width="152" height="40" viewBox="0 0 152 40" fill="none" xmlns="http://www.w3.org/2000/svg">
<path d="M25.4072 3.3822C29.2526 3.3822 32.5885 5.55402 34.2617 8.73669H22.9365L18.2764 18.6508V8.73669H17.8848V8.73474H14.623V8.73669H14.6152V19.5062L9.88965 19.4916L9.90625 8.73474H6.40234V32.2601H9.80566V22.601L14.6152 22.6166V23.0023L14.5918 32.2601H14.6152V32.2621H18.2764V24.767L19.7412 21.7758L22.8359 32.2621H26.6641L22.2373 17.3734L24.9014 12.097H27.9326V32.2621H31.5938V12.097H35.3223C35.3763 12.5179 35.4072 12.9466 35.4072 13.3822V26.4808C35.4072 32.0037 30.9301 36.4808 25.4072 36.4808H12.627C7.10411 36.4808 2.62695 32.0037 2.62695 26.4808V13.3822C2.62695 7.85936 7.10411 3.3822 12.627 3.3822H25.4072Z" fill="#2D5064"/>
<path d="M47.6503 12.1948V13.4944H43.472V12.1948H47.6503ZM43.9613 8.90112V16.988H42.312V8.90112H43.9613ZM48.8268 8.90112V16.988H47.183V8.90112H48.8268Z" fill="#2D5064"/>
<path d="M53.6153 10.2841L51.4382 16.988H49.6844L52.6587 8.90112H53.7747L53.6153 10.2841ZM55.424 16.988L53.2414 10.2841L53.0655 8.90112H54.1925L57.1833 16.988H55.424ZM55.325 13.9777V15.2829H51.0973V13.9777H55.325Z" fill="#2D5064"/>
<path d="M65.4573 15.6939L65.3528 18.9376H63.8135V16.988H63.1592V15.6939H65.4573ZM57.843 16.988V8.90112H59.4868V15.6884H62.7084V8.90112H64.3632V16.988H57.843Z" fill="#2D5064"/>
<path d="M68.0577 14.3665L71.2738 8.90112H72.9231V16.988H71.2738V11.5227L68.0577 16.988H66.4084V8.90112H68.0577V14.3665Z" fill="#2D5064"/>
<path d="M80.9278 12.7557V13.139C80.9278 13.7536 80.8453 14.3054 80.6804 14.7941C80.5154 15.2829 80.2827 15.6995 79.9822 16.0438C79.6816 16.3845 79.3224 16.6455 78.9046 16.827C78.4904 17.0084 78.0305 17.0991 77.5247 17.0991C77.0226 17.0991 76.5626 17.0084 76.1448 16.827C75.7306 16.6455 75.3714 16.3845 75.0672 16.0438C74.763 15.6995 74.5266 15.2829 74.358 14.7941C74.1931 14.3054 74.1106 13.7536 74.1106 13.139V12.7557C74.1106 12.1374 74.1931 11.5857 74.358 11.1006C74.5229 10.6118 74.7557 10.1953 75.0562 9.85089C75.3604 9.50653 75.7196 9.24363 76.1338 9.06219C76.5516 8.88076 77.0116 8.79004 77.5137 8.79004C78.0195 8.79004 78.4795 8.88076 78.8936 9.06219C79.3114 9.24363 79.6706 9.50653 79.9712 9.85089C80.2754 10.1953 80.5099 10.6118 80.6749 11.1006C80.8435 11.5857 80.9278 12.1374 80.9278 12.7557ZM79.262 13.139V12.7446C79.262 12.3151 79.2235 11.9374 79.1465 11.6116C79.0695 11.2857 78.9559 11.0117 78.8056 10.7896C78.6554 10.5674 78.4721 10.4008 78.2559 10.2897C78.0396 10.1749 77.7922 10.1175 77.5137 10.1175C77.2351 10.1175 76.9877 10.1749 76.7715 10.2897C76.5589 10.4008 76.3775 10.5674 76.2272 10.7896C76.0806 11.0117 75.9688 11.2857 75.8919 11.6116C75.8149 11.9374 75.7764 12.3151 75.7764 12.7446V13.139C75.7764 13.5648 75.8149 13.9425 75.8919 14.272C75.9688 14.5979 76.0825 14.8737 76.2327 15.0996C76.383 15.3218 76.5663 15.4903 76.7825 15.605C76.9987 15.7198 77.2461 15.7772 77.5247 15.7772C77.8032 15.7772 78.0506 15.7198 78.2669 15.605C78.4831 15.4903 78.6645 15.3218 78.8111 15.0996C78.9577 14.8737 79.0695 14.5979 79.1465 14.272C79.2235 13.9425 79.262 13.5648 79.262 13.139Z" fill="#2D5064"/>
<path d="M87.4535 12.1948V13.4944H83.2753V12.1948H87.4535ZM83.7646 8.90112V16.988H82.1153V8.90112H83.7646ZM88.63 8.90112V16.988H86.9862V8.90112H88.63Z" fill="#2D5064"/>
<path d="M93.4185 10.2841L91.2414 16.988H89.4877L92.4619 8.90112H93.5779L93.4185 10.2841ZM95.2272 16.988L93.0447 10.2841L92.8687 8.90112H93.9958L96.9865 16.988H95.2272ZM95.1283 13.9777V15.2829H90.9006V13.9777H95.1283Z" fill="#2D5064"/>
<path d="M103.166 8.90112V10.2064H99.1856V8.90112H103.166ZM104.342 8.90112V16.988H102.693V8.90112H104.342ZM98.9767 8.90112H100.62L100.417 12.9612C100.388 13.5685 100.331 14.0962 100.247 14.5442C100.166 14.9922 100.056 15.3736 99.9168 15.6884C99.7775 15.9994 99.6052 16.2512 99.4 16.4437C99.1984 16.6326 98.9602 16.7714 98.6853 16.8603C98.4104 16.9455 98.097 16.988 97.7452 16.988H97.3383V15.6884L97.5473 15.6717C97.7268 15.6532 97.8844 15.605 98.0201 15.5273C98.1557 15.4495 98.2711 15.3329 98.3664 15.1774C98.4654 15.0219 98.546 14.8238 98.6083 14.5831C98.6743 14.3387 98.7256 14.0406 98.7622 13.6888C98.8026 13.3371 98.8301 12.9261 98.8447 12.4558L98.9767 8.90112Z" fill="#2D5064"/>
<path d="M106.844 11.8504H108.713C109.343 11.8504 109.886 11.9559 110.34 12.167C110.795 12.3781 111.145 12.6743 111.39 13.0557C111.636 13.4371 111.759 13.8814 111.759 14.3887C111.759 14.7738 111.689 15.1255 111.55 15.444C111.411 15.7587 111.207 16.0327 110.94 16.266C110.676 16.4956 110.357 16.6733 109.983 16.7992C109.609 16.9251 109.186 16.988 108.713 16.988H105.766V8.90112H107.421V15.6884H108.713C109.028 15.6884 109.288 15.6291 109.494 15.5106C109.699 15.3921 109.853 15.2348 109.956 15.0385C110.062 14.8386 110.115 14.6182 110.115 14.3776C110.115 14.148 110.062 13.9406 109.956 13.7555C109.853 13.5667 109.699 13.4185 109.494 13.3112C109.288 13.2038 109.028 13.1501 108.713 13.1501H106.844V11.8504Z" fill="#2D5064"/>
<path d="M118.153 12.1948V13.4944H113.974V12.1948H118.153ZM114.464 8.90112V16.988H112.814V8.90112H114.464ZM119.329 8.90112V16.988H117.685V8.90112H119.329Z" fill="#2D5064"/>
<path d="M121.853 11.8504H123.722C124.348 11.8504 124.889 11.9559 125.344 12.167C125.802 12.3781 126.152 12.6743 126.394 13.0557C126.639 13.4371 126.762 13.8814 126.762 14.3887C126.762 14.7738 126.692 15.1255 126.553 15.444C126.414 15.7587 126.212 16.0327 125.948 16.266C125.684 16.4956 125.366 16.6733 124.992 16.7992C124.618 16.9251 124.195 16.988 123.722 16.988H120.775V8.90112H122.43V15.6884H123.722C124.033 15.6884 124.292 15.6291 124.497 15.5106C124.706 15.3921 124.862 15.2348 124.964 15.0385C125.067 14.8386 125.118 14.6182 125.118 14.3776C125.118 14.148 125.067 13.9406 124.964 13.7555C124.862 13.5667 124.706 13.4185 124.497 13.3112C124.292 13.2038 124.033 13.1501 123.722 13.1501H121.853V11.8504ZM129.115 8.90112V16.988H127.471V8.90112H129.115Z" fill="#2D5064"/>
<path d="M132.139 14.3665L135.355 8.90112H137.004V16.988H135.355V11.5227L132.139 16.988H130.489V8.90112H132.139V14.3665ZM134.547 6.77942H135.674C135.674 7.09786 135.595 7.38112 135.437 7.62921C135.283 7.8736 135.063 8.06614 134.778 8.20685C134.492 8.34385 134.155 8.41235 133.766 8.41235C133.176 8.41235 132.709 8.26054 132.364 7.95691C132.023 7.65328 131.853 7.26078 131.853 6.77942H132.974C132.974 6.97196 133.033 7.14414 133.15 7.29596C133.271 7.44777 133.476 7.52368 133.766 7.52368C134.052 7.52368 134.253 7.44777 134.371 7.29596C134.488 7.14414 134.547 6.97196 134.547 6.77942Z" fill="#2D5064"/>
<path d="M43.9668 21.9011V29.988H42.3175V21.9011H43.9668ZM48.6838 21.9011L45.6161 26.65H43.5985L43.3896 25.167H44.7365L46.6827 21.9011H48.6838ZM46.985 29.988L44.742 26.3723L45.8855 25.1837L48.9422 29.988H46.985Z" fill="#2D5064"/>
<path d="M52.8456 23.2841L50.6685 29.988H48.9147L51.889 21.9011H53.005L52.8456 23.2841ZM54.6543 29.988L52.4717 23.2841L52.2958 21.9011H53.4228L56.4136 29.988H54.6543ZM54.5554 26.9777V28.2829H50.3276V26.9777H54.5554Z" fill="#2D5064"/>
<path d="M60.053 21.9011V29.988H58.4092V21.9011H60.053ZM62.516 21.9011V23.2064H55.9848V21.9011H62.516Z" fill="#2D5064"/>
<path d="M66.117 23.2841L63.9399 29.988H62.1861L65.1604 21.9011H66.2764L66.117 23.2841ZM67.9257 29.988L65.7431 23.2841L65.5672 21.9011H66.6942L69.685 29.988H67.9257ZM67.8268 26.9777V28.2829H63.5991V26.9777H67.8268Z" fill="#2D5064"/>
<path d="M75.8644 21.9011V23.2064H71.8841V21.9011H75.8644ZM77.0409 21.9011V29.988H75.3916V21.9011H77.0409ZM71.6751 21.9011H73.319L73.1155 25.9612C73.0862 26.5685 73.0294 27.0962 72.9451 27.5442C72.8645 27.9922 72.7545 28.3736 72.6153 28.6884C72.476 28.9994 72.3037 29.2512 72.0985 29.4437C71.8969 29.6326 71.6587 29.7714 71.3838 29.8603C71.1089 29.9455 70.7955 29.988 70.4437 29.988H70.0368V28.6884L70.2458 28.6717C70.4253 28.6532 70.5829 28.605 70.7186 28.5273C70.8542 28.4495 70.9696 28.3329 71.0649 28.1774C71.1639 28.0219 71.2445 27.8238 71.3068 27.5831C71.3728 27.3387 71.4241 27.0406 71.4607 26.6888C71.5011 26.3371 71.5285 25.9261 71.5432 25.4558L71.6751 21.9011Z" fill="#2D5064"/>
<path d="M85.051 25.7557V26.139C85.051 26.7536 84.9686 27.3054 84.8036 27.7941C84.6387 28.2829 84.406 28.6995 84.1054 29.0438C83.8049 29.3845 83.4457 29.6455 83.0279 29.827C82.6137 30.0084 82.1537 30.0991 81.6479 30.0991C81.1458 30.0991 80.6859 30.0084 80.268 29.827C79.8539 29.6455 79.4947 29.3845 79.1905 29.0438C78.8863 28.6995 78.6499 28.2829 78.4813 27.7941C78.3164 27.3054 78.2339 26.7536 78.2339 26.139V25.7557C78.2339 25.1374 78.3164 24.5857 78.4813 24.1006C78.6462 23.6118 78.8789 23.1953 79.1795 22.8509C79.4837 22.5065 79.8429 22.2436 80.257 22.0622C80.6749 21.8808 81.1348 21.79 81.637 21.79C82.1427 21.79 82.6027 21.8808 83.0169 22.0622C83.4347 22.2436 83.7939 22.5065 84.0944 22.8509C84.3986 23.1953 84.6332 23.6118 84.7981 24.1006C84.9667 24.5857 85.051 25.1374 85.051 25.7557ZM83.3852 26.139V25.7446C83.3852 25.3151 83.3467 24.9374 83.2698 24.6116C83.1928 24.2857 83.0792 24.0117 82.9289 23.7896C82.7786 23.5674 82.5954 23.4008 82.3791 23.2897C82.1629 23.1749 81.9155 23.1175 81.637 23.1175C81.3584 23.1175 81.111 23.1749 80.8948 23.2897C80.6822 23.4008 80.5008 23.5674 80.3505 23.7896C80.2039 24.0117 80.0921 24.2857 80.0151 24.6116C79.9382 24.9374 79.8997 25.3151 79.8997 25.7446V26.139C79.8997 26.5648 79.9382 26.9425 80.0151 27.272C80.0921 27.5979 80.2057 27.8737 80.356 28.0996C80.5063 28.3218 80.6895 28.4903 80.9058 28.605C81.122 28.7198 81.3694 28.7772 81.6479 28.7772C81.9265 28.7772 82.1739 28.7198 82.3901 28.605C82.6064 28.4903 82.7878 28.3218 82.9344 28.0996C83.081 27.8737 83.1928 27.5979 83.2698 27.272C83.3467 26.9425 83.3852 26.5648 83.3852 26.139Z" fill="#2D5064"/>
<path d="M91.4943 21.9011V23.2064H87.8878V29.988H86.244V21.9011H91.4943Z" fill="#2D5064"/>
<path d="M98.6028 21.9011V29.988H96.959V21.9011H98.6028ZM101.066 21.9011V23.2064H94.5345V21.9011H101.066Z" fill="#2D5064"/>
<path d="M108.427 25.7557V26.139C108.427 26.7536 108.345 27.3054 108.18 27.7941C108.015 28.2829 107.782 28.6995 107.482 29.0438C107.181 29.3845 106.822 29.6455 106.404 29.827C105.99 30.0084 105.53 30.0991 105.024 30.0991C104.522 30.0991 104.062 30.0084 103.644 29.827C103.23 29.6455 102.871 29.3845 102.567 29.0438C102.262 28.6995 102.026 28.2829 101.857 27.7941C101.693 27.3054 101.61 26.7536 101.61 26.139V25.7557C101.61 25.1374 101.693 24.5857 101.857 24.1006C102.022 23.6118 102.255 23.1953 102.556 22.8509C102.86 22.5065 103.219 22.2436 103.633 22.0622C104.051 21.8808 104.511 21.79 105.013 21.79C105.519 21.79 105.979 21.8808 106.393 22.0622C106.811 22.2436 107.17 22.5065 107.471 22.8509C107.775 23.1953 108.009 23.6118 108.174 24.1006C108.343 24.5857 108.427 25.1374 108.427 25.7557ZM106.761 26.139V25.7446C106.761 25.3151 106.723 24.9374 106.646 24.6116C106.569 24.2857 106.455 24.0117 106.305 23.7896C106.155 23.5674 105.972 23.4008 105.755 23.2897C105.539 23.1749 105.292 23.1175 105.013 23.1175C104.735 23.1175 104.487 23.1749 104.271 23.2897C104.058 23.4008 103.877 23.5674 103.727 23.7896C103.58 24.0117 103.468 24.2857 103.391 24.6116C103.314 24.9374 103.276 25.3151 103.276 25.7446V26.139C103.276 26.5648 103.314 26.9425 103.391 27.272C103.468 27.5979 103.582 27.8737 103.732 28.0996C103.882 28.3218 104.066 28.4903 104.282 28.605C104.498 28.7198 104.746 28.7772 105.024 28.7772C105.303 28.7772 105.55 28.7198 105.766 28.605C105.983 28.4903 106.164 28.3218 106.311 28.0996C106.457 27.8737 106.569 27.5979 106.646 27.272C106.723 26.9425 106.761 26.5648 106.761 26.139Z" fill="#2D5064"/>
<path d="M112.748 26.4389H110.692L110.681 25.2947H112.408C112.712 25.2947 112.961 25.2559 113.155 25.1781C113.349 25.0966 113.494 24.98 113.59 24.8282C113.688 24.6727 113.738 24.4838 113.738 24.2617C113.738 24.0099 113.69 23.8062 113.595 23.6507C113.503 23.4952 113.359 23.3822 113.161 23.3119C112.966 23.2415 112.715 23.2064 112.408 23.2064H111.264V29.988H109.615V21.9011H112.408C112.873 21.9011 113.289 21.9456 113.655 22.0344C114.026 22.1233 114.339 22.2584 114.596 22.4399C114.852 22.6213 115.048 22.8509 115.184 23.1286C115.319 23.4026 115.387 23.7285 115.387 24.1061C115.387 24.4394 115.312 24.7467 115.162 25.0281C115.015 25.3095 114.783 25.5391 114.464 25.7169C114.148 25.8946 113.736 25.9927 113.227 26.0112L112.748 26.4389ZM112.677 29.988H110.241L110.885 28.6884H112.677C112.966 28.6884 113.203 28.6421 113.386 28.5495C113.569 28.4532 113.705 28.3236 113.793 28.1607C113.881 27.9978 113.925 27.8108 113.925 27.5997C113.925 27.3628 113.885 27.1572 113.804 26.9832C113.727 26.8092 113.602 26.6759 113.43 26.5833C113.258 26.487 113.031 26.4389 112.748 26.4389H111.16L111.171 25.2947H113.15L113.529 25.7446C114.016 25.7372 114.409 25.8242 114.706 26.0057C115.006 26.1834 115.224 26.4148 115.36 26.7C115.499 26.9851 115.569 27.2905 115.569 27.6164C115.569 28.1348 115.457 28.5717 115.233 28.9272C115.01 29.279 114.682 29.5437 114.249 29.7214C113.82 29.8992 113.296 29.988 112.677 29.988Z" fill="#2D5064"/>
<path d="M120.06 23.2841L117.883 29.988H116.129L119.104 21.9011H120.22L120.06 23.2841ZM121.869 29.988L119.686 23.2841L119.511 21.9011H120.638L123.628 29.988H121.869ZM121.77 26.9777V28.2829H117.542V26.9777H121.77Z" fill="#2D5064"/>
<path d="M127.488 27.1054H125.448V25.8057H127.488C127.803 25.8057 128.059 25.7539 128.257 25.6502C128.455 25.5428 128.6 25.3947 128.692 25.2059C128.783 25.017 128.829 24.8041 128.829 24.5671C128.829 24.3265 128.783 24.1024 128.692 23.8951C128.6 23.6877 128.455 23.5211 128.257 23.3952C128.059 23.2693 127.803 23.2064 127.488 23.2064H126.02V29.988H124.37V21.9011H127.488C128.114 21.9011 128.651 22.0159 129.098 22.2455C129.549 22.4714 129.894 22.7842 130.132 23.1841C130.37 23.584 130.489 24.0413 130.489 24.556C130.489 25.0781 130.37 25.5299 130.132 25.9113C129.894 26.2926 129.549 26.587 129.098 26.7944C128.651 27.0017 128.114 27.1054 127.488 27.1054Z" fill="#2D5064"/>
<path d="M138.203 25.7557V26.139C138.203 26.7536 138.12 27.3054 137.955 27.7941C137.79 28.2829 137.558 28.6995 137.257 29.0438C136.956 29.3845 136.597 29.6455 136.179 29.827C135.765 30.0084 135.305 30.0991 134.8 30.0991C134.297 30.0991 133.837 30.0084 133.42 29.827C133.005 29.6455 132.646 29.3845 132.342 29.0438C132.038 28.6995 131.801 28.2829 131.633 27.7941C131.468 27.3054 131.386 26.7536 131.386 26.139V25.7557C131.386 25.1374 131.468 24.5857 131.633 24.1006C131.798 23.6118 132.031 23.1953 132.331 22.8509C132.635 22.5065 132.994 22.2436 133.409 22.0622C133.826 21.8808 134.286 21.79 134.789 21.79C135.294 21.79 135.754 21.8808 136.168 22.0622C136.586 22.2436 136.946 22.5065 137.246 22.8509C137.55 23.1953 137.785 23.6118 137.95 24.1006C138.118 24.5857 138.203 25.1374 138.203 25.7557ZM136.537 26.139V25.7446C136.537 25.3151 136.498 24.9374 136.421 24.6116C136.344 24.2857 136.231 24.0117 136.081 23.7896C135.93 23.5674 135.747 23.4008 135.531 23.2897C135.315 23.1749 135.067 23.1175 134.789 23.1175C134.51 23.1175 134.263 23.1749 134.046 23.2897C133.834 23.4008 133.652 23.5674 133.502 23.7896C133.356 24.0117 133.244 24.2857 133.167 24.6116C133.09 24.9374 133.051 25.3151 133.051 25.7446V26.139C133.051 26.5648 133.09 26.9425 133.167 27.272C133.244 27.5979 133.357 27.8737 133.508 28.0996C133.658 28.3218 133.841 28.4903 134.057 28.605C134.274 28.7198 134.521 28.7772 134.8 28.7772C135.078 28.7772 135.326 28.7198 135.542 28.605C135.758 28.4903 135.939 28.3218 136.086 28.0996C136.233 27.8737 136.344 27.5979 136.421 27.272C136.498 26.9425 136.537 26.5648 136.537 26.139Z" fill="#2D5064"/>
<path d="M142.524 26.4389H140.468L140.457 25.2947H142.183C142.487 25.2947 142.736 25.2559 142.931 25.1781C143.125 25.0966 143.27 24.98 143.365 24.8282C143.464 24.6727 143.513 24.4838 143.513 24.2617C143.513 24.0099 143.466 23.8062 143.37 23.6507C143.279 23.4952 143.134 23.3822 142.936 23.3119C142.742 23.2415 142.491 23.2064 142.183 23.2064H141.039V29.988H139.39V21.9011H142.183C142.648 21.9011 143.064 21.9456 143.431 22.0344C143.801 22.1233 144.114 22.2584 144.371 22.4399C144.628 22.6213 144.824 22.8509 144.959 23.1286C145.095 23.4026 145.163 23.7285 145.163 24.1061C145.163 24.4394 145.088 24.7467 144.937 25.0281C144.791 25.3095 144.558 25.5391 144.239 25.7169C143.924 25.8946 143.512 25.9927 143.002 26.0112L142.524 26.4389ZM142.452 29.988H140.017L140.66 28.6884H142.452C142.742 28.6884 142.978 28.6421 143.162 28.5495C143.345 28.4532 143.48 28.3236 143.568 28.1607C143.656 27.9978 143.7 27.8108 143.7 27.5997C143.7 27.3628 143.66 27.1572 143.579 26.9832C143.502 26.8092 143.378 26.6759 143.206 26.5833C143.033 26.487 142.806 26.4389 142.524 26.4389H140.935L140.946 25.2947H142.925L143.304 25.7446C143.792 25.7372 144.184 25.8242 144.481 26.0057C144.782 26.1834 145 26.4148 145.135 26.7C145.274 26.9851 145.344 27.2905 145.344 27.6164C145.344 28.1348 145.232 28.5717 145.009 28.9272C144.785 29.279 144.457 29.5437 144.025 29.7214C143.596 29.8992 143.072 29.988 142.452 29.988Z" fill="#2D5064"/>
</svg>
